<svg aria-hidden="true" style="position: absolute; width: 0; height: 0; overflow: hidden;" version="1.1" xmlns="http://www.w3.org/2000/svg" xmlns:xlink="http://www.w3.org/1999/xlink">
<defs>
<symbol id="close" viewBox="0 0 32 32">
<path fill="#bfbcb8" style="fill: var(--color1, #bfbcb8)" d="M18.2 16.027l9.344-9.347c0.281-0.281 0.455-0.67 0.455-1.099 0-0.859-0.696-1.555-1.555-1.555-0.429 0-0.818 0.174-1.099 0.455l-9.345 9.347-9.345-9.348c-0.281-0.281-0.67-0.455-1.099-0.455-0.859 0-1.555 0.696-1.555 1.555 0 0.43 0.174 0.819 0.456 1.1l9.347 9.345-9.347 9.345c-0.282 0.281-0.457 0.67-0.457 1.1 0 0.858 0.695 1.553 1.553 1.553 0.001 0 0.002 0 0.003 0h-0c0.397 0 0.796-0.152 1.099-0.455l9.347-9.347 9.344 9.347c0.281 0.283 0.67 0.458 1.1 0.458s0.819-0.175 1.1-0.458l0-0c0.282-0.281 0.457-0.67 0.457-1.1s-0.175-0.819-0.457-1.1l-9.347-9.344z"></path>
</symbol>
<symbol id="info_aperture" viewBox="0 0 32 32">
<path fill="#fff" style="fill: var(--color2, #fff)" d="M9.28 21.192l14.766 8.58c-2.288 1.399-5.057 2.228-8.020 2.228-0.009 0-0.018 0-0.028-0h0.001c-0.030 0-0.066 0-0.102 0-2.407 0-4.684-0.56-6.707-1.556l0.089 0.040v-9.292zM8.092 12.8v17.066c-4.448-2.464-7.526-7.064-8-12.42l8-4.646zM32 15.88v0.142c0 0.009 0 0.020 0 0.030 0 5.369-2.675 10.114-6.765 12.974l-0.051 0.034-8-4.6 14.816-8.58zM23.906 2.134c4.45 2.464 7.526 7.064 8 12.42l-8 4.646v-17.066zM6.816 2.94l8 4.598-14.816 8.534v-0.048c-0-0.019-0-0.041-0-0.064 0-5.373 2.675-10.122 6.765-12.987l0.051-0.034zM16 0c2.414 0 4.688 0.52 6.722 1.518v9.242l-14.768-8.58c2.305-1.369 5.081-2.178 8.046-2.18h0z"></path>
</symbol>
<symbol id="info_clock" viewBox="0 0 32 32">
<path fill="#fff" style="fill: var(--color2, #fff)" d="M16.746 0c0.129 0 0.234 0.105 0.234 0.234 0 0 0 0 0 0v0 0.245c-0 0.129-0.105 0.234-0.234 0.234 0 0 0 0 0 0h-0.268v0.789c8.201 0.252 14.773 6.98 14.773 15.245 0 8.425-6.827 15.254-15.249 15.254s-15.251-6.829-15.251-15.254c0-8.264 6.572-14.992 14.773-15.244v-0.789h-0.268c-0 0-0 0-0 0-0.129 0-0.234-0.105-0.234-0.234 0-0 0-0 0-0v0-0.245c0-0.129 0.105-0.234 0.234-0.234h1.492zM16.382 3.501v1.339c0 0.211-0.171 0.382-0.382 0.382s-0.382-0.171-0.382-0.382v-1.339c-7.015 0.2-12.662 5.847-12.86 12.863h1.338c0.211 0 0.382 0.171 0.382 0.382s-0.171 0.382-0.382 0.382h-1.338c0.2 7.016 5.846 12.664 12.86 12.863v-1.338c-0-0.004-0-0.008-0-0.012 0-0.211 0.171-0.382 0.382-0.382s0.382 0.171 0.382 0.382c0 0.004-0 0.009-0 0.013l0-0.001v1.338c7.015-0.199 12.661-5.847 12.86-12.863h-1.338c-0.211 0-0.382-0.171-0.382-0.382s0.171-0.382 0.382-0.382v0h1.338c-0.199-7.017-5.845-12.664-12.86-12.863zM16 16.034c0.393 0 0.712 0.319 0.712 0.713v0c-0.001 0.042-0.005 0.083-0.013 0.123l0.001-0.004 4.532 4.099c0.113 0.103 0.198 0.236 0.241 0.387l0.001 0.006 0.061 0.222c0.004 0.012 0.006 0.026 0.006 0.041 0 0.085-0.069 0.153-0.153 0.153-0.009 0-0.018-0.001-0.027-0.002l0.001 0-0.228-0.039c-0.161-0.028-0.303-0.1-0.416-0.202l0.001 0.001-4.532-4.1c-0.056 0.017-0.12 0.027-0.187 0.028h-0c-0.388-0.007-0.701-0.323-0.701-0.712s0.312-0.706 0.7-0.712h0.001z"></path>
</symbol>
<symbol id="info_iso" viewBox="0 0 32 32">
<path fill="#fff" style="fill: var(--color2, #fff)" d="M28.9 8c1.711 0 3.1 1.4 3.1 3.125v9.75c0 1.726-1.388 3.125-3.1 3.125h-25.8c-1.711 0-3.1-1.4-3.1-3.125v-9.75c0-1.726 1.388-3.125 3.1-3.125h25.8zM12.71 10.911c-0.679 0-1.282 0.116-1.81 0.35-0.528 0.232-0.938 0.567-1.23 1.004s-0.438 0.95-0.438 1.539c0 0.627 0.143 1.128 0.43 1.503 0.27 0.357 0.616 0.642 1.016 0.833l0.017 0.007c0.4 0.186 0.921 0.374 1.563 0.564 0.47 0.133 0.84 0.254 1.11 0.363 0.268 0.11 0.492 0.259 0.671 0.449 0.18 0.19 0.269 0.432 0.269 0.727 0 0.36-0.132 0.653-0.396 0.876s-0.627 0.335-1.089 0.335c-0.452 0-0.808-0.119-1.068-0.356-0.248-0.228-0.39-0.535-0.427-0.92l-0.004-0.050h-2.12v0.066c0.020 0.58 0.185 1.086 0.494 1.516 0.32 0.447 0.757 0.789 1.308 1.026 0.552 0.238 1.171 0.357 1.86 0.357 0.725 0 1.352-0.136 1.88-0.406 0.528-0.271 0.928-0.635 1.202-1.090 0.273-0.456 0.41-0.95 0.41-1.482 0-0.618-0.146-1.117-0.438-1.497-0.274-0.362-0.625-0.652-1.030-0.848l-0.017-0.007c-0.405-0.19-0.928-0.38-1.57-0.57-0.454-0.131-0.818-0.26-1.173-0.405l0.078 0.028c-0.253-0.104-0.469-0.249-0.65-0.428l0 0c-0.162-0.163-0.262-0.388-0.262-0.636 0-0.009 0-0.018 0-0.027l-0 0.001c0-0.38 0.116-0.67 0.346-0.87s0.54-0.299 0.927-0.299c0.443 0 0.798 0.112 1.067 0.335 0.258 0.214 0.4 0.482 0.428 0.805l0.003 0.043h2.178l-0.005-0.060c-0.077-0.865-0.427-1.54-1.049-2.028-0.636-0.499-1.463-0.748-2.481-0.748zM23.394 10.911c-0.924 0-1.772 0.219-2.545 0.655-0.77 0.437-1.393 1.053-1.826 1.794l-0.012 0.023c-0.453 0.775-0.679 1.646-0.679 2.615 0 0.979 0.226 1.855 0.679 2.63 0.446 0.763 1.068 1.379 1.814 1.803l0.024 0.013c0.718 0.413 1.58 0.656 2.498 0.656 0.017 0 0.033-0 0.050-0l-0.003 0c0.924 0 1.772-0.219 2.545-0.656 0.769-0.436 1.389-1.053 1.819-1.794l0.012-0.023c0.448-0.774 0.672-1.65 0.672-2.629 0-0.969-0.224-1.84-0.672-2.615-0.44-0.763-1.059-1.379-1.8-1.805l-0.024-0.012c-0.717-0.412-1.577-0.655-2.493-0.655-0.021 0-0.041 0-0.062 0l0.003-0zM6.762 11.054h-1.98v9.946h1.98v-9.947zM23.394 12.707c0.594 0 1.117 0.133 1.57 0.399s0.806 0.648 1.060 1.147c0.255 0.498 0.382 1.080 0.382 1.745s-0.127 1.25-0.382 1.753c-0.254 0.504-0.608 0.89-1.060 1.161-0.453 0.271-0.976 0.406-1.57 0.406s-1.12-0.135-1.576-0.406c-0.461-0.278-0.826-0.673-1.061-1.145l-0.007-0.016c-0.254-0.503-0.382-1.088-0.382-1.753s0.128-1.247 0.382-1.745c0.255-0.5 0.61-0.881 1.068-1.147 0.457-0.266 0.982-0.4 1.576-0.4z"></path>
</symbol>
<symbol id="info_location" viewBox="0 0 32 32">
<path fill="#fff" style="fill: var(--color2, #fff)" d="M16 12.89c-1.924 0-3.48-1.49-3.48-3.328 0-1.836 1.556-3.324 3.48-3.324 1.92 0 3.476 1.488 3.476 3.324 0 1.84-1.556 3.328-3.476 3.328zM16 0c-5.522 0-10 4.28-10 9.56 0 3.856 5.318 15.382 8.2 21.34 0.706 1.466 2.888 1.466 3.6 0 2.88-5.96 8.2-17.484 8.2-21.34 0-5.28-4.478-9.56-10-9.56z"></path>
</symbol>
<symbol id="menu" viewBox="0 0 32 32">
<path d="M26.5 10.5h-21c-0.85 0-1.5-0.65-1.5-1.5s0.65-1.5 1.5-1.5h21c0.85 0 1.5 0.65 1.5 1.5s-0.65 1.5-1.5 1.5zM26.5 17.5h-21c-0.85 0-1.5-0.65-1.5-1.5s0.65-1.5 1.5-1.5h21c0.85 0 1.5 0.65 1.5 1.5s-0.65 1.5-1.5 1.5zM26.5 24.5h-21c-0.85 0-1.5-0.65-1.5-1.5s0.65-1.5 1.5-1.5h21c0.85 0 1.5 0.65 1.5 1.5s-0.65 1.5-1.5 1.5z"></path>
</symbol>
<symbol id="social_facebook" viewBox="0 0 32 32">
<path fill="#c0c0c0" style="fill: var(--color3, #c0c0c0)" d="M23.5 10.361h-5.113v-3.32c0-1.248 0.837-1.54 1.424-1.54h3.6v-5.483l-4.964-0.019c-5.507 0-6.757 4.089-6.757 6.708v3.653h-3.189v5.648h3.187v15.991h6.704v-15.987h4.523l0.587-5.652z"></path>
</symbol>
<symbol id="social_instagram" viewBox="0 0 32 32">
<path fill="#c0c0c0" style="fill: var(--color3, #c0c0c0)" d="M16 7.691c-4.587 0.005-8.304 3.722-8.309 8.309v0.001c0.005 4.586 3.723 8.303 8.309 8.307h0c4.586-0.005 8.302-3.721 8.307-8.306v-0c-0.002-4.587-3.72-8.306-8.306-8.309h-0zM16 21.139c-2.837-0.002-5.136-2.302-5.139-5.138v-0c0.002-2.837 2.302-5.136 5.138-5.139h0c2.837 0.002 5.136 2.302 5.139 5.138v0c-0.002 2.837-2.302 5.136-5.138 5.139h-0zM22.792 0h-13.584c-5.083 0.007-9.201 4.125-9.208 9.207v13.585c0.007 5.083 4.125 9.201 9.207 9.208h13.585c5.083-0.007 9.201-4.125 9.208-9.207v-13.585c-0.006-5.083-4.125-9.202-9.207-9.208h-0.001zM28.832 22.792c-0.005 3.333-2.707 6.034-6.040 6.037h-13.584c-3.333-0.004-6.034-2.705-6.037-6.037v-13.584c0.004-3.333 2.705-6.034 6.037-6.037h13.584c3.333 0.004 6.034 2.705 6.037 6.037v13.584h0.003zM24.423 5.291c-1.197 0-2.175 0.973-2.175 2.173 0 1.197 0.973 2.175 2.173 2.175 1.199 0 2.175-0.973 2.175-2.173s-0.976-2.175-2.173-2.175z"></path>
</symbol>
<symbol id="social_twiter" viewBox="0 0 32 32">
<path fill="#c0c0c0" style="fill: var(--color3, #c0c0c0)" d="M32 6.076c-1.098 0.5-2.371 0.864-3.707 1.028l-0.064 0.006c1.358-0.822 2.378-2.084 2.872-3.586l0.013-0.046c-1.2 0.724-2.596 1.277-4.083 1.58l-0.085 0.014c-1.198-1.277-2.897-2.073-4.782-2.073-0.003 0-0.006 0-0.009 0h0c-0.001 0-0.003 0-0.004 0-3.625 0-6.564 2.939-6.564 6.564v0c0 0.516 0.059 1.016 0.169 1.496-5.469-0.281-10.28-2.88-13.504-6.827l-0.026-0.033c-0.558 0.945-0.888 2.081-0.888 3.295 0 0.002 0 0.004 0 0.006v-0c0 2.279 1.16 4.287 2.917 5.464-1.097-0.034-2.117-0.335-3.006-0.839l0.032 0.017v0.084c0.001 3.166 2.242 5.809 5.224 6.429l0.043 0.007c-0.517 0.147-1.112 0.231-1.726 0.231-0.438 0-0.865-0.043-1.279-0.125l0.042 0.007c0.863 2.628 3.27 4.503 6.123 4.56l0.007 0c-2.215 1.751-5.047 2.808-8.127 2.808-0.008 0-0.017 0-0.025-0h0.001c-0.006 0-0.012 0-0.019 0-0.545 0-1.082-0.033-1.61-0.098l0.063 0.006c2.84 1.849 6.315 2.948 10.047 2.948 0.005 0 0.011 0 0.016 0h-0.001c12.075 0 18.68-10.001 18.68-18.676 0-0.284-0.008-0.567-0.019-0.848 1.283-0.928 2.399-2.084 3.276-3.4z"></path>
</symbol>
</defs>
</svg>
