<svg aria-hidden="true" style="position:absolute;width:0;height:0;overflow:hidden" xmlns="http://www.w3.org/2000/svg"><defs><symbol id="menu" viewBox="0 0 32 32"><path d="M26.5 10.5h-21C4.65 10.5 4 9.85 4 9s.65-1.5 1.5-1.5h21c.85 0 1.5.65 1.5 1.5s-.65 1.5-1.5 1.5zM26.5 17.5h-21c-.85 0-1.5-.65-1.5-1.5s.65-1.5 1.5-1.5h21c.85 0 1.5.65 1.5 1.5s-.65 1.5-1.5 1.5zM26.5 24.5h-21c-.85 0-1.5-.65-1.5-1.5s.65-1.5 1.5-1.5h21c.85 0 1.5.65 1.5 1.5s-.65 1.5-1.5 1.5z"/></symbol><symbol id="close" viewBox="0 0 32 32"><path d="m18.199 16.026 9.345-9.346c.608-.608.608-1.591 0-2.199s-1.591-.608-2.199 0l-9.346 9.346-9.345-9.346c-.608-.608-1.591-.608-2.199 0s-.608 1.591 0 2.199l9.345 9.346-9.345 9.346a1.554 1.554 0 1 0 2.198 2.199l9.345-9.346 9.346 9.346c.303.303.701.455 1.099.455s.796-.152 1.099-.455a1.554 1.554 0 0 0 0-2.199l-9.345-9.346z"/></symbol></defs></svg>