<svg width="24" height="24" viewBox="0 0 24 24" fill="none" xmlns="http://www.w3.org/2000/svg">
<path d="M13.6493 12.0197L20.6583 5.01047C21.1144 4.55455 21.1144 3.81739 20.6583 3.36147C20.2024 2.90555 19.4652 2.90555 19.0093 3.36147L12.0001 10.3707L4.9911 3.36147C4.53496 2.90555 3.79802 2.90555 3.3421 3.36147C2.88597 3.81739 2.88597 4.55455 3.3421 5.01047L10.3511 12.0197L3.3421 19.0289C2.88597 19.4848 2.88597 20.2219 3.3421 20.6779C3.56931 20.9053 3.86806 21.0195 4.1666 21.0195C4.46513 21.0195 4.76367 20.9053 4.9911 20.6779L12.0001 13.6687L19.0093 20.6779C19.2367 20.9053 19.5352 21.0195 19.8338 21.0195C20.1323 21.0195 20.4308 20.9053 20.6583 20.6779C21.1144 20.2219 21.1144 19.4848 20.6583 19.0289L13.6493 12.0197Z" fill="#BFBCB8"/>
</svg>
