<?xml version="1.0" standalone="no"?>
<!DOCTYPE svg PUBLIC "-//W3C//DTD SVG 20010904//EN"
 "http://www.w3.org/TR/2001/REC-SVG-20010904/DTD/svg10.dtd">
<svg version="1.0" xmlns="http://www.w3.org/2000/svg"
 width="256.000000pt" height="256.000000pt" viewBox="0 0 256.000000 256.000000"
 preserveAspectRatio="xMidYMid meet">
<metadata>
Created by potrace 1.14, written by Peter Selinger 2001-2017
</metadata>
<g transform="translate(0.000000,256.000000) scale(0.100000,-0.100000)"
fill="#000000" stroke="none">
<path d="M0 1280 l0 -1280 1280 0 1280 0 0 1280 0 1280 -1280 0 -1280 0 0
-1280z m1290 1239 c94 -15 185 -43 270 -86 l75 -38 3 -342 c2 -264 -1 -343
-10 -343 -12 0 -268 146 -603 345 -104 62 -260 153 -345 203 -85 49 -156 94
-158 100 -5 16 195 110 293 137 148 42 305 50 475 24z m1218 -520 l-3 -501
-340 -197 c-187 -108 -361 -210 -387 -225 l-48 -28 0 636 c0 732 -12 670 104
545 l66 -71 0 164 c0 91 3 168 7 171 3 4 141 7 305 7 l298 0 -2 -501z m-1762
116 c249 -146 283 -169 267 -180 -10 -6 -142 -84 -293 -172 -151 -88 -371
-217 -487 -286 -117 -69 -213 -123 -214 -119 -8 69 19 264 53 377 50 167 164
366 280 489 52 54 70 68 87 63 12 -3 150 -80 307 -172z m-226 -1240 l0 -666
-32 17 c-50 26 -198 180 -253 263 -68 103 -140 270 -175 406 -31 119 -59 347
-44 353 5 1 119 68 254 147 135 79 246 144 248 144 1 1 2 -298 2 -664z m1990
-150 l0 -665 -302 2 -303 3 -3 174 -2 174 -53 -57 -52 -56 -287 167 c-158 93
-288 170 -288 173 0 3 51 34 113 69 103 59 862 503 1072 627 50 29 93 53 98
54 4 0 7 -299 7 -665z m-1330 -172 c297 -175 540 -320 540 -323 0 -11 -130
-91 -194 -120 -257 -117 -618 -111 -864 14 l-52 26 0 366 c0 325 2 365 15 360
9 -3 259 -148 555 -323z"/>
</g>
</svg>
