<?xml version="1.0" standalone="no"?>
<!DOCTYPE svg PUBLIC "-//W3C//DTD SVG 20010904//EN"
 "http://www.w3.org/TR/2001/REC-SVG-20010904/DTD/svg10.dtd">
<svg version="1.0" xmlns="http://www.w3.org/2000/svg"
 width="261.000000pt" height="261.000000pt" viewBox="0 0 261.000000 261.000000"
 preserveAspectRatio="xMidYMid meet">
<metadata>
Created by potrace 1.14, written by Peter Selinger 2001-2017
</metadata>
<g transform="translate(0.000000,261.000000) scale(0.100000,-0.100000)"
fill="#000000" stroke="none">
<path d="M0 1378 c0 -678 3 -1266 7 -1305 l6 -73 1298 0 1299 0 0 1305 0 1305
-1305 0 -1305 0 0 -1232z m1315 1190 c97 -14 186 -43 278 -89 l77 -39 0 -356
0 -356 -25 16 c-13 9 -46 28 -72 42 -26 15 -102 59 -168 99 -66 40 -140 83
-165 97 -25 14 -67 39 -95 55 -161 97 -307 183 -310 183 -3 0 -29 16 -59 35
-30 19 -57 35 -60 35 -2 0 -41 23 -86 50 -45 28 -86 50 -91 50 -13 0 -11 16 4
28 32 26 161 85 243 112 178 57 331 68 529 38z m971 -28 l274 0 0 -501 0 -501
-22 -19 c-13 -10 -26 -18 -31 -19 -4 0 -26 -11 -48 -26 -22 -14 -55 -33 -72
-43 -75 -44 -333 -194 -458 -268 -76 -44 -144 -83 -153 -86 -15 -6 -16 51 -16
644 l0 650 29 -20 c16 -12 57 -51 90 -88 l61 -66 0 171 c0 169 0 171 23 175
12 2 28 3 35 1 8 -2 137 -4 288 -4z m-1798 -226 c25 -14 82 -47 127 -73 268
-158 324 -191 360 -211 85 -47 85 -43 -7 -95 -46 -26 -122 -72 -170 -101 -48
-30 -90 -54 -92 -54 -2 0 -44 -24 -93 -54 -49 -29 -109 -64 -133 -78 -135 -77
-197 -113 -245 -144 -30 -19 -57 -34 -60 -34 -4 0 -19 -8 -33 -19 -26 -17
-120 -71 -125 -71 -7 0 5 132 19 220 22 131 49 217 105 338 62 133 122 222
216 322 41 44 77 80 80 80 2 0 25 -12 51 -26z m42 -1424 l0 -680 -27 17 c-195
125 -369 396 -442 687 -25 99 -59 342 -49 350 12 10 119 76 123 76 3 0 29 16
59 35 30 19 58 35 61 35 3 0 34 17 68 38 34 22 85 52 112 68 28 16 59 34 70
40 11 7 21 12 23 13 1 1 2 -305 2 -679z m2030 -150 l0 -681 -307 3 -308 3 -3
179 -2 179 -53 -59 -53 -58 -45 26 c-24 14 -61 35 -81 47 -90 50 -110 62 -131
75 -12 8 -41 25 -63 38 -158 88 -263 154 -261 162 2 5 88 59 193 119 104 61
214 125 244 143 30 18 104 61 164 96 60 35 125 73 145 84 20 12 63 37 96 56
77 45 231 135 270 159 17 10 53 30 80 45 28 14 61 35 75 45 14 10 28 19 33 19
4 0 7 -306 7 -680z m-1888 135 c20 -14 40 -25 43 -25 3 0 22 -10 43 -23 48
-30 147 -89 192 -114 19 -11 110 -64 203 -119 92 -54 194 -115 227 -134 33
-19 85 -50 117 -69 32 -19 72 -42 88 -51 31 -18 168 -101 173 -105 8 -7 -163
-107 -228 -134 -176 -72 -387 -93 -590 -60 -80 13 -209 54 -272 86 l-48 23 0
375 c0 206 3 375 8 375 4 0 24 -11 44 -25z"/>
</g>
</svg>
